/* XPM */
static char * exit_xpm[] = {
"64 64 161 2",
"  	c #FFFFFF",
". 	c #E1E1E1",
"+ 	c #C6C6C6",
"@ 	c #919191",
"# 	c #828282",
"$ 	c #757575",
"% 	c #7F7F7F",
"& 	c #8D8D8D",
"* 	c #AAAAAA",
"= 	c #CDCDCD",
"- 	c #DFDFDF",
"; 	c #E9E9E9",
"> 	c #F4F4F4",
", 	c #BCBCBC",
"' 	c #CBCBCB",
") 	c #A5A5A5",
"! 	c #787878",
"~ 	c #474747",
"{ 	c #000000",
"] 	c #2B2B2B",
"^ 	c #595959",
"/ 	c #555555",
"( 	c #626262",
"_ 	c #6C6C6C",
": 	c #4D4D4D",
"< 	c #262626",
"[ 	c #797979",
"} 	c #313131",
"| 	c #363636",
"1 	c #868686",
"2 	c #8A8A8A",
"3 	c #9E9E9E",
"4 	c #BDBDBD",
"5 	c #929292",
"6 	c #505050",
"7 	c #101010",
"8 	c #0E0E0E",
"9 	c #1A1A1A",
"0 	c #1E1E1E",
"a 	c #292929",
"b 	c #4A4A4A",
"c 	c #434343",
"d 	c #1B1B1B",
"e 	c #080808",
"f 	c #020202",
"g 	c #232323",
"h 	c #B3B3B3",
"i 	c #404040",
"j 	c #090909",
"k 	c #272727",
"l 	c #131313",
"m 	c #151515",
"n 	c #070707",
"o 	c #010101",
"p 	c #040404",
"q 	c #121212",
"r 	c #222222",
"s 	c #2D2D2D",
"t 	c #333333",
"u 	c #171717",
"v 	c #030303",
"w 	c #181818",
"x 	c #666666",
"y 	c #838383",
"z 	c #060606",
"A 	c #0C0C0C",
"B 	c #1C1C1C",
"C 	c #161616",
"D 	c #5E5E5E",
"E 	c #959595",
"F 	c #050505",
"G 	c #202020",
"H 	c #242424",
"I 	c #393939",
"J 	c #3C3C3C",
"K 	c #212121",
"L 	c #0B0B0B",
"M 	c #191919",
"N 	c #565656",
"O 	c #2F2F2F",
"P 	c #141414",
"Q 	c #464646",
"R 	c #727272",
"S 	c #898989",
"T 	c #AEAEAE",
"U 	c #BABABA",
"V 	c #E6E6E6",
"W 	c #C4C4C4",
"X 	c #848484",
"Y 	c #3D3D3D",
"Z 	c #2A2A2A",
"` 	c #636363",
" .	c #C2C2C2",
"..	c #D7D7D7",
"+.	c #282828",
"@.	c #0D0D0D",
"#.	c #1D1D1D",
"$.	c #707070",
"%.	c #494949",
"&.	c #525252",
"*.	c #323232",
"=.	c #6F6F6F",
"-.	c #9D9D9D",
";.	c #7C7C7C",
">.	c #696969",
",.	c #343434",
"'.	c #0F0F0F",
").	c #767676",
"!.	c #3F3F3F",
"~.	c #8F8F8F",
"{.	c #373737",
"].	c #3E3E3E",
"^.	c #A1A1A1",
"/.	c #A6A6A6",
"(.	c #F9F9F9",
"_.	c #484848",
":.	c #ABABAB",
"<.	c #656565",
"[.	c #575757",
"}.	c #5F5F5F",
"|.	c #969696",
"1.	c #676767",
"2.	c #0A0A0A",
"3.	c #424242",
"4.	c #EEEEEE",
"5.	c #4E4E4E",
"6.	c #353535",
"7.	c #999999",
"8.	c #2C2C2C",
"9.	c #1F1F1F",
"0.	c #3A3A3A",
"a.	c #979797",
"b.	c #7A7A7A",
"c.	c #878787",
"d.	c #414141",
"e.	c #7E7E7E",
"f.	c #858585",
"g.	c #808080",
"h.	c #383838",
"i.	c #5A5A5A",
"j.	c #9B9B9B",
"k.	c #8B8B8B",
"l.	c #6D6D6D",
"m.	c #444444",
"n.	c #515151",
"o.	c #939393",
"p.	c #B9B9B9",
"q.	c #B4B4B4",
"r.	c #111111",
"s.	c #7D7D7D",
"t.	c #646464",
"u.	c #737373",
"v.	c #252525",
"w.	c #4C4C4C",
"x.	c #6A6A6A",
"y.	c #2E2E2E",
"z.	c #545454",
"A.	c #777777",
"B.	c #5D5D5D",
"C.	c #D5D5D5",
"D.	c #CCCCCC",
"                                                                                                                                ",
"                                                        . + @ # $ % % & * = - ; > > , , '                                       ",
"                                . , , .             . ) ! ~ ~ { ] ] ] ] ~ ^ ^ / ( _ : < [ '                                     ",
"                              > % } | 1 @ 2 3 4 5 6 ] 7 { 8 8 9 0 a | b c ] a d { e e f f g : # h .                             ",
"                              h i f j k l { } m n o { { { { o o p p q d r s t u v f f { { { { w : x & h                         ",
"                            ' y { f o { { p o { { { { { o o { o f v { f { z 7 o { f 7 n { { { A B C m D h .                     ",
"                          . E w e { { { o { { o v F v p B G G H | I J a K l f { { { { n u v F { L l M w N ) .                   ",
"                        > ) O j { { { { { v F j P Q D R S T T U + . V ; W X Y n { { { { F K F j { { B } r Z ` +                 ",
"                         .c f { { o j { u M r g D h .                     > ..[ +.v { { o F e j 8 { 7 @.#.n B T                 ",
"                      . $.p { { { v @.%.{ &.% T +                             > = y *.A { v p o o p { F z F q =.                ",
"                      -.#.{ { { e { Z { ! ) .                                       ..;.I @.o { { { { { z F { >.>               ",
"                    ..,.{ { { w '.t d E ,                                             > 4 ).!.q { { { { { v m _ >               ",
"                    ~.p { { '.@.{.G y '                                                     ..2 ].n { { { { k h >               ",
"                  > O { { f z m 0 ^.'                                                           . @ | o { { n /.                ",
"                  /.p { { F e A ;.'             (.-.2 ;.T T T T T T T T T T T T T T T + .           . _.o { { r :.              ",
"                > <.{ { o F { [.'               > b z w c ~ ~ ~ ~ ~ ~ ~ ~ ~ ~ ~ ~ ~ ~ ` ,             ..}.'.{ o 6               ",
"                ..O { { e F g |.                > ,.f A c ~ ~ ~ ~ ~ ~ ~ ~ ~ ~ ~ ~ ~ ~ ` ,                 1.7 { 9 ! >           ",
"                |.u { q n 2.3...                4.5.{ J /.T T T T T T T T T T T T T T + .                 > >.q { M [           ",
"          , , @ &.f v F p { R >                 ..^ ] #                                                     . Y o { 6..         ",
"          ` { H F o o f f < -.                  = ~ ~ &                                                       7.j { e 2 >       ",
"          } { f { { o f F i =                   4 ^ ] -.                                                      . i o o J =       ",
"          r { { { { { n 7 / ;                   4 ~ ~ -.                                                        ;.2.o q ).      ",
"          G { { { { { F { _ >                   T ~ ~ T                                                         -.8.p { 8.T     ",
"          9.{ { { { f j w $                     T ~ ~ T                                                         T c L o f >.    ",
"          d { { { { F 9 K &                     T ~ ~ T                                                         T ~ #.o o 0.    ",
"          #.{ { { { '.m i -.                    T ~ ~ T                                                         T ~ O @.{ 8..   ",
"          0 { { { o '.w c +                     T ~ ~ T                                                         T ~ c H { w h   ",
"          r { { { j { { ` .                     T ~ ~ T                                                         T ~ ~ *.{ 2.&   ",
"          G { { { P { { !                       a.{.O b.T T T T T 4 = - - = 4 -.# E ,                           T ~ ~ {.{ 2.%   ",
"          r { { { u { C @                       c.M w J ~ ~ ~ ~ ~ ~ ^ ^ ^ ^ ~ ~ ] { ,                           T ~ ~ {.{ 2.%   ",
"          a { { { 0 { w T                       [ B k 3.~ ~ ~ ~ ~ ~ ] ] ] ] ~ ~ ^ S ,                           T ~ c {.{ A %   ",
"          d.{ { { 9 F d 4                       e.a b /.T T T T T -.& % % & -.4 ..>                             T ~ c ,.e A $   ",
"          }.{ { { l f +...                      % ] ^ -                                                         T ~ i 6.{ { #   ",
"          X { { { L { t ;                       $ ] ^ ;                                                         T ~ 0.H v P %   ",
"          f.{ { { f v 8.>                       _ { ` >                                                         T ~ ] j f @.T   ",
"          g.{ { { { { h.>                       ` { `                                                           T Y 9 f { O +   ",
"          $ o { { o { ].                        ` { `                                                         > @ } e o p i.    ",
"          $ v { { { { 5.                        ` { `                                                         > ).#.j f l j.    ",
"          $ n { { { { /                         ` { `                                                         > $ g 2.{ K =     ",
"          g.e { { { { /                         ` { `                                                           % M F { i >     ",
"          k.'.{ { { { b                         _ { ` >                                                       > $.A o q l.      ",
"          k.j { { { { m.                        $ ] ^ ;                                                        .n.v o l 5       ",
"          5 e { { { { ].                        & ] ^ =                                                     ' o.M j f P T       ",
"          S 7 { { { { 0..                       -.~ ~ 4                                                   ..` M K z { c +       ",
"          # q { { { o u T                       T ~ ~ T                                                 . -.8.2.M l M #         ",
"        ; : { o { { { j 7.                      7.} } 7.                                                ) &.8.{.@.m 0.*         ",
"        p.} f e v v { '.[ .                     ! P 7 $.= - - - - - - - - - - - - - q./.T .           ' ! { ( b r.l 1...        ",
"        p.H B F z '.@.l i h                     % 2.@.s ^ ^ ^ ^ ^ ^ ^ ^ ^ ^ ^ ^ ^ ^ !.r ~ ,         ' E ] 1.( w d t ) >         ",
"        ' ) ` K o z 7 v j &.+                   ) ^ } Y ] ] ] ] ] ] ] ] ] ] ] ] ] ] #.r ~ ,       + _ G D s.{.q { t..           ",
"            . R 9.{ o { o e u...                > ..4 -.& % % % % % % % % % % % % % ;.S T .     . @ v.Z t.5.z p C @             ",
"              . # 0.F { { { n c |.'                                                           h # 0.Y }.{.p f { &.+             ",
"                  + t.M { { { { p [.+                                                       + >.P Y -.t.e { j t.)               ",
"                    > |.J n { { { o @.G _.5 .                     > > >                 >  .l.M 9 3.w.g o v &..                 ",
"                        . % v.p { { { { { f '.9 } ^ S T T T T T -.# x.$ % % & & c.x.6 d.y.k F n n F z f d z.h                   ",
"                            . @ Y L p o { { { { { o 2.q r *.0.c ~ ] ] a < G w 9.2.p o { { { f o o { e J # .                     ",
"                                . + /.t.*.'.e o { { { { f v F z e 8 P 8 e z v o o { { { o v z r.2.Z x.4 >                       ",
"                                        > ; W A.b '.F f f f o o { o f f o o { F z n 2.u !.<.c.y T +                             ",
"                                                . T S t.b ,.a #.#.9 9 #.H s Q B.u.).S /...>                                     ",
"                                                      > ; - C.C.' '  .D.C.; >                                                   ",
"                                                                                                                                ",
"                                                                                                                                ",
"                                                                                                                                ",
"                                                                                                                                ",
"                                                                                                                                "};
