/* XPM */
static char * open_exit_xpm[] = {
"64 64 149 2",
"  	c #FFFFFF",
". 	c #E1E1E1",
"+ 	c #B3B3B3",
"@ 	c #828282",
"# 	c #616161",
"$ 	c #636363",
"% 	c #474747",
"& 	c #595959",
"* 	c #6C6C6C",
"= 	c #A5A5A5",
"- 	c #787878",
"; 	c #2B2B2B",
"> 	c #000000",
", 	c #CBCBCB",
"' 	c #959595",
") 	c #4D4D4D",
"! 	c #363636",
"~ 	c #4A4A4A",
"{ 	c #5E5E5E",
"] 	c #7A7A7A",
"^ 	c #919191",
"/ 	c #AEAEAE",
"( 	c #9D9D9D",
"_ 	c #8D8D8D",
": 	c #757575",
"< 	c #262626",
"[ 	c #323232",
"} 	c #353535",
"| 	c #2F2F2F",
"1 	c #646464",
"2 	c #F4F4F4",
"3 	c #D7D7D7",
"4 	c #898989",
"5 	c #333333",
"6 	c #0E0E0E",
"7 	c #282828",
"8 	c #2A2A2A",
"9 	c #3D3D3D",
"0 	c #565656",
"a 	c #696969",
"b 	c #313131",
"c 	c #BCBCBC",
"d 	c #404040",
"e 	c #171717",
"f 	c #0A0A0A",
"g 	c #111111",
"h 	c #1E1E1E",
"i 	c #434343",
"j 	c #A8A8A8",
"k 	c #C6C6C6",
"l 	c #F0F0F0",
"m 	c #727272",
"n 	c #191919",
"o 	c #4E4E4E",
"p 	c #7C7C7C",
"q 	c #4B4B4B",
"r 	c #181818",
"s 	c #838383",
"t 	c #ABABAB",
"u 	c #E9E9E9",
"v 	c #A1A1A1",
"w 	c #494949",
"x 	c #050505",
"y 	c #C2C2C2",
"z 	c #010101",
"A 	c #7F7F7F",
"B 	c #222222",
"C 	c #1C1C1C",
"D 	c #7D7D7D",
"E 	c #C3C3C3",
"F 	c #FEFEFE",
"G 	c #555555",
"H 	c #1D1D1D",
"I 	c #414141",
"J 	c #212121",
"K 	c #8A8A8A",
"L 	c #252525",
"M 	c #373737",
"N 	c #3C3C3C",
"O 	c #F5F5F5",
"P 	c #8E8E8E",
"Q 	c #767676",
"R 	c #AAAAAA",
"S 	c #202020",
"T 	c #F3F3F3",
"U 	c #BABABA",
"V 	c #ACACAC",
"W 	c #F9F9F9",
"X 	c #E7E7E7",
"Y 	c #7E7E7E",
"Z 	c #BEBEBE",
"` 	c #A7A7A7",
" .	c #BDBDBD",
"..	c #A6A6A6",
"+.	c #2C2C2C",
"@.	c #121212",
"#.	c #060606",
"$.	c #8B8B8B",
"%.	c #151515",
"&.	c #B4B4B4",
"*.	c #DFDFDF",
"=.	c #CDCDCD",
"-.	c #979797",
";.	c #030303",
">.	c #777777",
",.	c #515151",
"'.	c #3F3F3F",
").	c #6B6B6B",
"!.	c #040404",
"~.	c #585858",
"{.	c #969696",
"].	c #656565",
"^.	c #080808",
"/.	c #747474",
"(.	c #545454",
"_.	c #797979",
":.	c #464646",
"<.	c #131313",
"[.	c #1A1A1A",
"}.	c #999999",
"|.	c #161616",
"1.	c #020202",
"2.	c #0F0F0F",
"3.	c #090909",
"4.	c #4C4C4C",
"5.	c #6A6A6A",
"6.	c #575757",
"7.	c #303030",
"8.	c #676767",
"9.	c #292929",
"0.	c #8C8C8C",
"a.	c #454545",
"b.	c #D5D5D5",
"c.	c #5A5A5A",
"d.	c #505050",
"e.	c #232323",
"f.	c #3E3E3E",
"g.	c #A2A2A2",
"h.	c #626262",
"i.	c #737373",
"j.	c #272727",
"k.	c #1B1B1B",
"l.	c #1F1F1F",
"m.	c #2E2E2E",
"n.	c #0C0C0C",
"o.	c #101010",
"p.	c #070707",
"q.	c #141414",
"r.	c #0D0D0D",
"                                                          . + @ # $ % % % % % % & & * @ + .                                     ",
"                                                    . = - $ % ; ; > % % % % % % ; ; > ; % - = .                                 ",
"                                                  , ' ) > > ! ~ { ] ^ / / / / ( _ : * & % > % - = .                             ",
"                                            . ( - { < [ } | [ 1 ( .                 2 3 ( - % > % 4 .                           ",
"                                        . = - 5 > 6 7 8 9 ; 0 - = .                       . = a b % = c                         ",
"                                      . ( d > e f g h i ) @ j k . l                           k = m > 4 ,                       ",
"                                    . ^ } n 6 > o # @ ( k .                                       + p ; ' c                     ",
"                                  / q e 6 r o s t u 2                                             2 c s > 4 ,                   ",
"                                v w x > 7 p y 2                                                       + p ; ' c                 ",
"                            k a } z f } A .                                                           2 c 4 > ' ,               ",
"                            4 B > 8 a k                                                                   c s ; 4 ,             ",
"                        + ' ) C d D u                                         E y y F                       + G H * k           ",
"                      . - H I / k                                             < 6 J 2                       u K 7 L ^ .         ",
"                    . = 9 M - .                                               < > h 2                         k m b q +         ",
"                  2 = 0 w ( 3                                                 I N N O                           3 # ; @ 2       ",
"                  y * ; P .                                                                                     2 @ ; # 3       ",
"                , P ; Q y                                                                                         R % % R       ",
"              k * S { + T 2 2 O                                                                                   3 * ; @ .     ",
"            . ^ L 8 ^ 2 2 U V ,                                             W . . X                               2 ( % ) +     ",
"            = q b - k   3 Y G +                                             2 + ' ,                                 3 & ; @     ",
"          . - > - .     Z ) ) `         3 4 4 +                              .{ ) (                                 2 - > * .   ",
"          = % % =       ^ % % k         ..+.@.4                             R 8 8 (                                   ( % % +   ",
"        . - > - .       @ > $ 3         1 #.#.1                             4 b b ..                                  3 & ; @   ",
"        = % % =       2 * ; # 2         i z x $.                            @ ; & 3                                   2 - > * . ",
"      . - > - .       u # ; : 2       2 +.> %.&.                            * > $ 2                                     ( % % + ",
"      = % % =         *.& ; A         =.J > 5 2                           2 $ > *                                       3 & ; @ ",
"    2 - > * .         *.& ; A         -.f ;.N                             3 & ; @                                       2 * > * ",
"    3 & ; @           *.& ; A         >.x z ,.                             .% % (                                         m H '.",
"     .% % (           *.& ; A         ).!.!.~.                            / % % /                                         {.B B ",
"    / % % /           *.& ; A       2 ].^.f /.                            / % % /                                         &.'.H ",
"    / % % /           *.& ; A       u (.^.6 _.                            / % % /                                         *.& ; ",
"    ^ % % k           *.& ; A       =.:.^.<._                             / % % /                                         *.& ; ",
"    - > $ .           *.& ; A        .; #.[.4                             / % % /                                         *.& ; ",
"    * > $ 2           u & ; :       }.|.1.2...                            / % % /                                         *.& ; ",
"    : ; & u           2 $ > *       }.3.z B  .                            / % % /                                         *.& ; ",
"    A ; & *.            - > $ .     - 2.> 4.2                             }.b b }.                                        *.& ; ",
"    A ; & *.            ( % % +     * x g 5.                              4 B B ..                                        u & ; ",
"    A ; & *.            3 & ; @ 2 + o ;.f 6.3                             p H '.&.                                        3 $ > ",
"    A ; & *.            2 4 > (.* # > 7.f M +                             : ; & u                                         k % % ",
"    A ; & *.              c 4 > ; ; s p m i m ( =.2                       * > $ 2                                         }.b b ",
"    A ; & *.                c 4 # ' ,   . + ! '.8.= .                   2 $ > *                                           4 B B ",
"    A ; & *.                  2 2 2       , 4 % 9.% - ( 3 2             u & ; :                                           m H '.",
"    A ; & *.                                . + @ ) > % * ( 3 2         *.& ; A                                           * > $ ",
"    A ; & *.                                    . = - % ; % # @ R 3 2   *.& ; A                                         . $ > - ",
"    _ ; & =.                                        . + @ ) ; ; % # : A 0.a.; A                                         + % % ( ",
"    ( % %  .                                            . + @ # % ; ; ; } d ; A                     2 3 3 .           . @ ; * 3 ",
"    / % % /                                                 2 3 R @ # & ).d ; A                 . + @ # $ c           + ) % ( 2 ",
"    / % % /                                                       2 u *.b.c.H d. .u u *.*.=. .^ - % ; ; $ c         2 @ ; # 3   ",
"    / % % /                                                             2 K B r ~ $ & & & & % % > % # @ + .         y # ; P 2   ",
"    k % % ^                                                                .& H e.> ; ; ; ; % % - ( 3 2           . P ; * y     ",
"    . $ > -                                                               2 c ' : : : A A _ ( k .                 + ) % ( 2     ",
"      - > $ .                                                                                                   . @ ; * 3       ",
"      = % % =                                                                                                   + ) % p + c 2   ",
"      . 4 > @ ,                                                                                                 @ ; a.p f.g.2   ",
"        c s ; 4 ,                                                                                             , * > d.[ p + 2   ",
"          + h.; ' .                                                                                           ' H +.h 4 c 2     ",
"          u ( { (.( + .                                                                                     , { > > 8.c         ",
"            . c 4 ! % - ( 3 2                                                                             . s r r M ( 2         ",
"                c p % > % * = .                                                                           / e.f h {..           ",
"                2 3 ( - % ; % - ( 3 2                                                                     { #.z d 3             ",
"                      . + @ ) > % * ( 3 2                                                   2 2 2     2 Q H > f i.2             ",
"                          . = - % ; % & - ^  .3 2                                 2 u =...}.A Q : _ ( m j.> ^.o =.              ",
"                              . + @ ) ; > % % # @ (  . . . . ...}.4 _ A A A A : * $ & & | [.B k.l.l.m.e.z @.i =.                ",
"                                  . + @ * % % ; ; [ r 6 ^.n.C @.2.h [.[.[.|.<.o.> > <.g 2.x p.%.q.[.r.p.i @ 3                   "};
