/* XPM */
static char * player_xpm[] = {
"64 64 123 2",
"  	c #FFFFFF",
". 	c #F4F4F4",
"+ 	c #DCDCDC",
"@ 	c #BDBDBD",
"# 	c #D4D4D4",
"$ 	c #C6C6C6",
"% 	c #9D9D9D",
"& 	c #7C7C7C",
"* 	c #757575",
"= 	c #616161",
"- 	c #565656",
"; 	c #373737",
"> 	c #2D2D2D",
", 	c #5B5B5B",
"' 	c #919191",
") 	c #C2C2C2",
"! 	c #9A9A9A",
"~ 	c #505050",
"{ 	c #252525",
"] 	c #1D1D1D",
"^ 	c #2B2B2B",
"/ 	c #000000",
"( 	c #181818",
"_ 	c #242424",
": 	c #1C1C1C",
"< 	c #898989",
"[ 	c #E1E1E1",
"} 	c #CBCBCB",
"| 	c #6C6C6C",
"1 	c #121212",
"2 	c #222222",
"3 	c #3F3F3F",
"4 	c #6E6E6E",
"5 	c #727272",
"6 	c #636363",
"7 	c #393939",
"8 	c #2A2A2A",
"9 	c #333333",
"0 	c #B3B3B3",
"a 	c #131313",
"b 	c #434343",
"c 	c #8A8A8A",
"d 	c #B4B4B4",
"e 	c #E9E9E9",
"f 	c #7F7F7F",
"g 	c #111111",
"h 	c #5E5E5E",
"i 	c #828282",
"j 	c #1E1E1E",
"k 	c #717171",
"l 	c #B9B9B9",
"m 	c #BCBCBC",
"n 	c #555555",
"o 	c #0C0C0C",
"p 	c #0F0F0F",
"q 	c #AAAAAA",
"r 	c #3C3C3C",
"s 	c #CDCDCD",
"t 	c #E7E7E7",
"u 	c #F9F9F9",
"v 	c #5A5A5A",
"w 	c #363636",
"x 	c #A5A5A5",
"y 	c #969696",
"z 	c #2C2C2C",
"A 	c #959595",
"B 	c #4D4D4D",
"C 	c #787878",
"D 	c #313131",
"E 	c #A6A6A6",
"F 	c #474747",
"G 	c #696969",
"H 	c #3D3D3D",
"I 	c #D7D7D7",
"J 	c #595959",
"K 	c #4E4E4E",
"L 	c #525252",
"M 	c #141414",
"N 	c #AEAEAE",
"O 	c #4B4B4B",
"P 	c #2F2F2F",
"Q 	c #999999",
"R 	c #080808",
"S 	c #282828",
"T 	c #2E2E2E",
"U 	c #0A0A0A",
"V 	c #929292",
"W 	c #212121",
"X 	c #676767",
"Y 	c #A4A4A4",
"Z 	c #8E8E8E",
"` 	c #303030",
" .	c #0E0E0E",
"..	c #FEFEFE",
"+.	c #DFDFDF",
"@.	c #232323",
"#.	c #151515",
"$.	c #515151",
"%.	c #ABABAB",
"&.	c #5D5D5D",
"*.	c #101010",
"=.	c #202020",
"-.	c #B5B5B5",
";.	c #7D7D7D",
">.	c #292929",
",.	c #343434",
"'.	c #737373",
").	c #A1A1A1",
"!.	c #050505",
"~.	c #1A1A1A",
"{.	c #070707",
"].	c #545454",
"^.	c #E4E4E4",
"/.	c #BEBEBE",
"(.	c #8D8D8D",
"_.	c #8B8B8B",
":.	c #EEEEEE",
"<.	c #5F5F5F",
"[.	c #4A4A4A",
"}.	c #767676",
"|.	c #1B1B1B",
"1.	c #838383",
"2.	c #797979",
"                                                                                                                                ",
"                                                                                                                                ",
"                                                                                                                                ",
"                                                        . . + @ @ #                                                             ",
"                                                  $ % & * = - ; > , ' $                                                         ",
"                                              ) ! ~ { ] ^ ^ / ( _ : : - < [                                                     ",
"                                            } | : 1 2 3 = | 4 5 6 7 8 / 9 & 0                                                   ",
"                                          0 6 1 a b c d e .     [ $ f - g / h )                                                 ",
"                                        . i 1 j k l .                 m n o p | [                                               ",
"                                        q r g n s   t [ [ u     [ [ [ . l v o w x                                               ",
"                                        y 1 z y     } A 0 .     m < m     0 B / C                                               ",
"                                        < D D E     } A 0 .     m < m       C / 6 [                                             ",
"                                        @ F F %     t [ [ u     [ [ [     . G H b [                                             ",
"                                        I J ^ i                           I K 1 h [                                             ",
"                                        . < / | m [                       q D 2 &                                               ",
"                                          m x F 6 x                     ' L M h @                                               ",
"                                            [ C / , N [               0 O / P x .                                               ",
"                                              x F 2 H | i < Q Q % % i h R ] h [                                                 ",
"                                              [ < F H / S 8 ] T F ^ F / H C I                                                   ",
"                                                [ $ ' C b g U _ F J F C x [                                                     ",
"                                                      . V _ W X @ @ I [                                                         ",
"                                                        Y H H Y                                                                 ",
"                                                        $ F F '                           $ x x [                               ",
"                                                        I 6 / i                       I Z v P 6 [                               ",
"                            } i i x                     e J ^ *                   [ 0 5 `  .H < [                               ",
"                            m ^ / v q I ..              +.J ^ f                 } < F @.] K ' [                                 ",
"                            m J D #.D $.y $             e J ^ *           . e %.Z ^ 3 &.Z ) .                                   ",
"                            . I % n : *.=.- f Q Q $ [   . 6 / |     . I % C J J / C % s .                                       ",
"                                . -.;.r =./ D 2 D B i 0 [ 6 / 6 . I % | F / ^ ^ < m                                             ",
"                                    . @ c G D 2 D F ^ F = >./ ,.'.J F ^ F | * ).}                                               ",
"                                          [ N Q Q ' | F / !./ p / ^ B i 0 [                                                     ",
"                                                  . I % G ~./ {.].i 0 [                                                         ",
"                                                        ^.- / F /.                                                              ",
"                                                        e J ^ *                                                                 ",
"                                                        +.J ^ f                                                                 ",
"                                                        +.J ^ f                                                                 ",
"                                                        +.J ^ f                                                                 ",
"                                                        +.J ^ f                                                                 ",
"                                                        +.J ^ f                                                                 ",
"                                                        +.J ^ f                                                                 ",
"                                                        s J ^ (.                                                                ",
"                                                        @ F F %                                                                 ",
"                                                        N F F N                                                                 ",
"                                                        N F F N                                                                 ",
"                                                        N F F N                                                                 ",
"                                                        N F F N                                                                 ",
"                                                        N F F N                                                                 ",
"                                                        Q D D Q                                                                 ",
"                                                        Q W j _.:.                                                              ",
"                                                    . I <.] *.[.x                                                               ",
"                                                  } A }.b ( @.#.G $                                                             ",
"                                              [ 0 i ` w | & J D |.G $                                                           ",
"                                          [ y L P =.= A }   [ C 2 _ ' [                                                         ",
"                                          m b R U &.0 .       $ C H O x [                                                       ",
"                                      . 0 1.P { L q .           [ x - b 5 % [                                                   ",
"                                    [ x | / c @ I                 [ x H 1 F m                                                   ",
"                                  [ x - ^ < m                       [ C ; D < m                                                 ",
"                                . < F r A }                           I @ 2./ C $                                               ",
"                                0 J ( i [                                 x D 2 C                                               ",
"                              m 1./ C 0                                   [ 6 / C                                               ",
"                              m / < m                                       x x x                                               ",
"                              m m m                                                                                             ",
"                                                                                                                                ",
"                                                                                                                                "};
