/* XPM */
static char * player_exit_xpm[] = {
"64 64 229 2",
"  	c #FFFFFF",
". 	c #F6F6F6",
"+ 	c #DEDEDE",
"@ 	c #CBCBCB",
"# 	c #C0C0C0",
"$ 	c #BFBFBF",
"% 	c #CACACA",
"& 	c #DFDFDF",
"* 	c #E7E7E7",
"= 	c #C2C2C2",
"- 	c #A9A9A9",
"; 	c #969696",
"> 	c #949494",
", 	c #8F8F8F",
"' 	c #8C8C8C",
") 	c #838383",
"! 	c #828282",
"~ 	c #818181",
"{ 	c #868686",
"] 	c #898989",
"^ 	c #989898",
"/ 	c #A1A1A1",
"( 	c #AAAAAA",
"_ 	c #EAEAEA",
": 	c #E1E1E1",
"< 	c #B8B8B8",
"[ 	c #9A9A9A",
"} 	c #8D8D8D",
"| 	c #757575",
"1 	c #595959",
"2 	c #484848",
"3 	c #3B3B3B",
"4 	c #373737",
"5 	c #313131",
"6 	c #3A3A3A",
"7 	c #4E4E4E",
"8 	c #6E6E6E",
"9 	c #909090",
"0 	c #939393",
"a 	c #C5C5C5",
"b 	c #F1F1F1",
"c 	c #F7F7F7",
"d 	c #E2E2E2",
"e 	c #767676",
"f 	c #646464",
"g 	c #4B4B4B",
"h 	c #3E3E3E",
"i 	c #333333",
"j 	c #191919",
"k 	c #0F0F0F",
"l 	c #0C0C0C",
"m 	c #000000",
"n 	c #545454",
"o 	c #404040",
"p 	c #525252",
"q 	c #656565",
"r 	c #9E9E9E",
"s 	c #A3A3A3",
"t 	c #BCBCBC",
"u 	c #D1D1D1",
"v 	c #EBEBEB",
"w 	c #666666",
"x 	c #111111",
"y 	c #1C1C1C",
"z 	c #1B1B1B",
"A 	c #222222",
"B 	c #181818",
"C 	c #2F2F2F",
"D 	c #535353",
"E 	c #565656",
"F 	c #1A1A1A",
"G 	c #4C4C4C",
"H 	c #B0B0B0",
"I 	c #B2B2B2",
"J 	c #B6B6B6",
"K 	c #DCDCDC",
"L 	c #E6E6E6",
"M 	c #C9C9C9",
"N 	c #7D7D7D",
"O 	c #575757",
"P 	c #2C2C2C",
"Q 	c #141414",
"R 	c #252525",
"S 	c #4F4F4F",
"T 	c #696969",
"U 	c #A6A6A6",
"V 	c #BDBDBD",
"W 	c #F4F4F4",
"X 	c #F5F5F5",
"Y 	c #B3B3B3",
"Z 	c #888888",
"` 	c #3C3C3C",
" .	c #121212",
"..	c #C3C3C3",
"+.	c #C6C6C6",
"@.	c #D2D2D2",
"#.	c #F3F3F3",
"$.	c #ECECEC",
"%.	c #5D5D5D",
"&.	c #626262",
"*.	c #7F7F7F",
"=.	c #D7D7D7",
"-.	c #F9F9F9",
";.	c #EFEFEF",
">.	c #CDCDCD",
",.	c #8A8A8A",
"'.	c #353535",
").	c #787878",
"!.	c #D5D5D5",
"~.	c #E0E0E0",
"{.	c #D4D4D4",
"].	c #E5E5E5",
"^.	c #DDDDDD",
"/.	c #9B9B9B",
"(.	c #676767",
"_.	c #212121",
":.	c #585858",
"<.	c #9D9D9D",
"[.	c #3D3D3D",
"}.	c #EEEEEE",
"|.	c #C1C1C1",
"1.	c #ACACAC",
"2.	c #454545",
"3.	c #A5A5A5",
"4.	c #959595",
"5.	c #919191",
"6.	c #A4A4A4",
"7.	c #434343",
"8.	c #444444",
"9.	c #F8F8F8",
"0.	c #E8E8E8",
"a.	c #E4E4E4",
"b.	c #7E7E7E",
"c.	c #7C7C7C",
"d.	c #DADADA",
"e.	c #CCCCCC",
"f.	c #808080",
"g.	c #B1B1B1",
"h.	c #FBFBFB",
"i.	c #F0F0F0",
"j.	c #E9E9E9",
"k.	c #C7C7C7",
"l.	c #D3D3D3",
"m.	c #CECECE",
"n.	c #737373",
"o.	c #232323",
"p.	c #4D4D4D",
"q.	c #F2F2F2",
"r.	c #FCFCFC",
"s.	c #FAFAFA",
"t.	c #727272",
"u.	c #929292",
"v.	c #EDEDED",
"w.	c #D8D8D8",
"x.	c #D9D9D9",
"y.	c #DBDBDB",
"z.	c #FEFEFE",
"A.	c #AEAEAE",
"B.	c #6F6F6F",
"C.	c #636363",
"D.	c #242424",
"E.	c #E3E3E3",
"F.	c #161616",
"G.	c #0D0D0D",
"H.	c #151515",
"I.	c #2E2E2E",
"J.	c #6D6D6D",
"K.	c #FDFDFD",
"L.	c #292929",
"M.	c #5E5E5E",
"N.	c #474747",
"O.	c #202020",
"P.	c #9C9C9C",
"Q.	c #4A4A4A",
"R.	c #3F3F3F",
"S.	c #616161",
"T.	c #555555",
"U.	c #2B2B2B",
"V.	c #B4B4B4",
"W.	c #8B8B8B",
"X.	c #6C6C6C",
"Y.	c #D6D6D6",
"Z.	c #AFAFAF",
"`.	c #6B6B6B",
" +	c #9F9F9F",
".+	c #B9B9B9",
"++	c #D0D0D0",
"@+	c #B5B5B5",
"#+	c #7B7B7B",
"$+	c #A8A8A8",
"%+	c #424242",
"&+	c #606060",
"*+	c #CFCFCF",
"=+	c #B7B7B7",
"-+	c #686868",
";+	c #5F5F5F",
">+	c #282828",
",+	c #ADADAD",
"'+	c #5A5A5A",
")+	c #2A2A2A",
"!+	c #0A0A0A",
"~+	c #6A6A6A",
"{+	c #A2A2A2",
"]+	c #010101",
"^+	c #040404",
"/+	c #272727",
"(+	c #BABABA",
"_+	c #020202",
":+	c #999999",
"<+	c #5C5C5C",
"[+	c #C4C4C4",
"}+	c #C8C8C8",
"|+	c #1D1D1D",
"1+	c #414141",
"2+	c #BBBBBB",
"3+	c #BEBEBE",
"4+	c #393939",
"5+	c #1F1F1F",
"6+	c #090909",
"7+	c #363636",
"8+	c #505050",
"9+	c #494949",
"0+	c #464646",
"a+	c #030303",
"b+	c #060606",
"c+	c #797979",
"d+	c #979797",
"e+	c #070707",
"f+	c #5B5B5B",
"                                                        . + @ # # $ $ % & .                                                     ",
"                                              * = - ; > , ' ) ! ~ ! { ] ^ / ( # _                                               ",
"                                          : < [ } { | 1 2 3 4 5 6 7 8 ' , 9 0 ^ - a b                                           ",
"                                    c d - e f 7 g h i j k l m m m i n f o p q r s ( t u                                         ",
"                                  v a ^ w i x y j m z A B C D E f e ) m F m G , H I J = K L                                     ",
"                                v M N O P m Q R S T ! ] U V W   X W Y Z ` R  .q } a ..+.% @.#.                                  ",
"                              $.$ ] %.m 4 &.*.U =.W             -.W W ;.>.,.'.m ).!.~.@.{.=.K ].                                ",
"                            ^.+./.(._.:.<.:     : t t :         : Y Y :   : T 5 [.+.X * d d : d _ .                             ",
"                          }.|.1.e [.2.3.W       : ] ] :         : 4.5.=.b b 6.7.8.1.    9.$._ 0.L a.$.                          ",
"                        ;.!.V b.[.z c.:         : t t d.b _ * ~...U s < e.>.f.6 [.g.      h.. i.$.j.0.W                         ",
"                      -.d.k.+.N k P ;         X b ;.}.$.* d K =.l.m.@ @ e.m.n.o.p.=           9.q.}._ }.r.                      ",
"                    s.d @.e.^.t.A A u.      X i.i.b b i.v.* d + K w.w.x.d.y.w R p :           z.-.W }.v.q.r.                    ",
"                    L d.{.d ;.A.A y B.:     q.q.X 9.9.c X i.v $.W r.      =.(.m ).W               s.. }.v.$.X                   ",
"                  ;.a.y.L q.  +.C.m D.C.+.  q.W 9.r.z.z.                Y T R 7.3.                  s.W ;.v i.                  ",
"                r.L E.0.#.      t T F.R ] Y =.X -.z.                  =.(.G.H.) :                     s.W ;.}.#.                ",
"                }.j._ b           A.).E I.p.J.; # K.                : 5.L.B M.=                         h.c ;.;.b               ",
"              q.$.v.W -.              t c.N.z O.D P.=.W       W >.<.).7.R ).+.                            h.X v.$.q.            ",
"            ;.L j.#.s.                W =.<.Q.O.m 5 R.M.S.M.E S.T.R.U.n 4.@                                 s.i.j._ r.          ",
"            ].d v .           : : :       W V.) :._. .m O.m m m L.N.).Y :                                   z.W j.a.}.          ",
"          #.+ d v 9.          t C.] t       W W $ f.M.M.'.R C &.! Y :                                         9.v d E.h.        ",
"          d {.& $.K.          t C.m ).3.:   W W . h.  W W.i X.a.                                              K.v.: ^.i.        ",
"          @.u d.}.            : 3.).m E 3.: . X c h.    *.U.1 &                                                 b d d.E.        ",
"        -.% M Y.i.                t ] N.N.) Z.j.c h.z.  *.U.1 &                 W =.V +.:                       c d =.x.s.      ",
"        j.= a w.                    : 3.E m `. +x.-.K.  *.U.1 &             : Y ! S.N.C.t                       r.a.Y.@..       ",
"        d..+= y.                      : 3.).U.Q., a -.h.b.U.1 ^.        : 3.).N.U.U.N.C.t                         a.Y.++b       ",
"        u @+V ^.                          +.9 Q.L.q ' # #+L.T.l.}.}.a.$+#+%+m 2.&+! <.+.:                         ].!.*+i.      ",
"        +.H =+~.                        K.9.d. +-+m O.;+:.>+D >.* % 0 &+m R.J.u.>.q.                              ].Y.u i.      ",
"        .+- =+_                         s.9.9.v.,+'+O.m )+!+>+c.c.%.h R ~+> m.}.q.h.                              L !.++i.      ",
"      9.Z.{+< 9.                        -.s.s.h.h.$ ,.C.m ]+^+/+z m 7.! V.].j.v.#.h.                              a.!.++X       ",
"      i.$+s (+                          h.r.r.r.  h.c Y I.]+_+l y S :+++v.;.b #.9.K.                            K.d l.u -.      ",
"      + $+s ..                          s.h.h.h.        -+F.O.<+; +.                                            K.~.@.++-.      ",
"      !.3.( M                           -.-.-.s.      W | L.<+& z.                                              X & *+*+9.      ",
"      >.$+1.@.                          s.X . c z.    W S.U.X.W                                                 b =.*+{.-.      ",
"      *+1.Z.{.                          s.#.i.q.s.    j.C.m |                                                   ].u M {.        ",
"      @ I V.K                             W ;.}.#.    j.1 U.|                                                   ~.>.[+=.        ",
"    }.a @+|.v                             . $.$.;.    & 1 U.*.                                                  =.}+..+         ",
"    ;.# |.@ -.                            s.v _ v.K.  & 1 U.*.                                                h.{...k.9.        ",
"    q.>.a u                               r.;._ v.#.  V.R.|+c.                                                h.>.= a           ",
"      !.++!.                                c ;.$.i.h.; A A ;                                                 i.m.$ %           ",
"      + x.^.h.                                q.i.i.W c.|+R.V.                                                E.k.|.M           ",
"      0.E.a.W                                 9.X W W #+U.1 &                                                 & M = @.          ",
"      b v j.v                                 K.s.-.X B.>+p =._ * E.: & + w.=.^._ W s.                        + >.+.=.          ",
"      -.q.;.v.                                  z.r.d.w m X.w.y.Y.++e.M k.+.= a }+u ].                        E.*+>.j.          ",
"      K.-.q.}.9.                                  z.@.7.1+e d K Y.@.>.@ }+k.M +.a }+L                       r.d {.u W           ",
"      z.h.#.$.$.                                    >.1 )+Z i.v 0.].d : ~.].].& =.K v                       c a.w.d.s.          ",
"        r.i.0.L c                                   & 1 U.*.                                                X ].^.:             ",
"          v.].+ * X                                 & 1 U.*.                                                #.L + _             ",
"          9._ d.{.!.d q.                            & 1 U.*.                                                i.].& q.            ",
"            X ~.m.a ..a Y.b                         j.1 U.|                                               h.v.: ~.h.            ",
"              ;.y.a 2+.+2++.@.q.                    W C.m X.                                              . * & :               ",
"                  Y.V J J =+3+=.}.h.                  4+m P ^.                                          r.v ~.d.v               ",
"                    j.K V =+.+$ }+: h.              : 5+m 6+r                                           X ~.=.w.#.              ",
"                        }.: ..(+|.m.x.a.X K.      : 3.Q _+m p ] Y                                       0.!.m.l.                ",
"                            x.@ k.}+u d.* W   W = ( M.2.D '+)+m f 5.+.                                h.d.% k.=.                ",
"                                0.*+u d.: $.Y./ X.7+] t : @ ] C.m )+).:                               0.>.= @ _                 ",
"                                  v.0.a.0.e.[ D U.#+t         t C.A 5 ] t                           d.k.V ..~.                  ",
"                                        @.^ 8+9+] V v q.X h.r.  +.5.g m X.4.@                     q.% < J *+9.                  ",
"                                      : ] 0+N.<.=.q.;.$.j.].L $.c : 3.).m B E =               q.d.= J I < *                     ",
"                                    : 3.N.'.5.: s.;.v 0.d + d.d.+ E.v.Y h a+b+q =.    r.#.E.!.% 3+Y ,+V $.                      ",
"                                    <.7.C *.+.      r.i.* + d.!.u {.Y.d.w a+]+x c+>.& d.@.}+|.< < J 2+@                         ",
"                                  Y p l [.+.              h.b + !.*+*+++d+` a+e+4+6.++@ k.|.(+(+++v.                            ",
"                                  3.B P ).:                     b * d.!.l.0 f+>+P | d+@ >.@ !.+                                 ",
"                                  3.e ) =.                                  K Y ) m t                                           ",
"                                  W W W                                         t t t                                           "};
