/* XPM */
static char * ground_xpm[] = {
"64 64 213 2",
"  	c #FFFFFF",
". 	c #F0F0F0",
"+ 	c #E1E1E1",
"@ 	c #C6C6C6",
"# 	c #787878",
"$ 	c #A5A5A5",
"% 	c #D4D4D4",
"& 	c #565656",
"* 	c #9B9B9B",
"= 	c #BCBCBC",
"- 	c #636363",
"; 	c #000000",
"> 	c #BABABA",
", 	c #474747",
"' 	c #919191",
") 	c #AEAEAE",
"! 	c #4D4D4D",
"~ 	c #F4F4F4",
"{ 	c #8E8E8E",
"] 	c #2B2B2B",
"^ 	c #6C6C6C",
"/ 	c #C2C2C2",
"( 	c #616161",
"_ 	c #AAAAAA",
": 	c #595959",
"< 	c #BDBDBD",
"[ 	c #9D9D9D",
"} 	c #FDFDFD",
"| 	c #F7F7F7",
"1 	c #767676",
"2 	c #707070",
"3 	c #686868",
"4 	c #5D5D5D",
"5 	c #505050",
"6 	c #4C4C4C",
"7 	c #484848",
"8 	c #494949",
"9 	c #4B4B4B",
"0 	c #4F4F4F",
"a 	c #525252",
"b 	c #555555",
"c 	c #5A5A5A",
"d 	c #5F5F5F",
"e 	c #666666",
"f 	c #1C1C1C",
"g 	c #1E1E1E",
"h 	c #5B5B5B",
"i 	c #989898",
"j 	c #A1A1A1",
"k 	c #ABABAB",
"l 	c #B7B7B7",
"m 	c #C1C1C1",
"n 	c #CACACA",
"o 	c #D5D5D5",
"p 	c #EEEEEE",
"q 	c #F8F8F8",
"r 	c #FEFEFE",
"s 	c #ECECEC",
"t 	c #DADADA",
"u 	c #CBCBCB",
"v 	c #C3C3C3",
"w 	c #BFBFBF",
"x 	c #BBBBBB",
"y 	c #B6B6B6",
"z 	c #A3A3A3",
"A 	c #010101",
"B 	c #030303",
"C 	c #080808",
"D 	c #0F0F0F",
"E 	c #181818",
"F 	c #212121",
"G 	c #333333",
"H 	c #383838",
"I 	c #3F3F3F",
"J 	c #575757",
"K 	c #656565",
"L 	c #6F6F6F",
"M 	c #7F7F7F",
"N 	c #898989",
"O 	c #262626",
"P 	c #292929",
"Q 	c #6B6B6B",
"R 	c #4A4A4A",
"S 	c #222222",
"T 	c #161616",
"U 	c #0C0C0C",
"V 	c #050505",
"W 	c #020202",
"X 	c #747474",
"Y 	c #676767",
"Z 	c #404040",
"` 	c #3A3A3A",
" .	c #323232",
"..	c #202020",
"+.	c #070707",
"@.	c #EBEBEB",
"#.	c #DEDEDE",
"$.	c #D1D1D1",
"%.	c #999999",
"&.	c #1F1F1F",
"*.	c #414141",
"=.	c #171717",
"-.	c #0A0A0A",
";.	c #E8E8E8",
">.	c #D2D2D2",
",.	c #BEBEBE",
"'.	c #969696",
").	c #444444",
"!.	c #2F2F2F",
"~.	c #0E0E0E",
"{.	c #FBFBFB",
"].	c #F5F5F5",
"^.	c #DBDBDB",
"/.	c #CECECE",
"(.	c #B2B2B2",
"_.	c #939393",
":.	c #141414",
"<.	c #121212",
"[.	c #545454",
"}.	c #515151",
"|.	c #A6A6A6",
"1.	c #727272",
"2.	c #1D1D1D",
"3.	c #454545",
"4.	c #D7D7D7",
"5.	c #828282",
"6.	c #313131",
"7.	c #696969",
"8.	c #464646",
"9.	c #E2E2E2",
"0.	c #9C9C9C",
"a.	c #949494",
"b.	c #909090",
"c.	c #8B8B8B",
"d.	c #878787",
"e.	c #858585",
"f.	c #FCFCFC",
"g.	c #F1F1F1",
"h.	c #DDDDDD",
"i.	c #C9C9C9",
"j.	c #B9B9B9",
"k.	c #B0B0B0",
"l.	c #A4A4A4",
"m.	c #959595",
"n.	c #848484",
"o.	c #131313",
"p.	c #0B0B0B",
"q.	c #040404",
"r.	c #434343",
"s.	c #EDEDED",
"t.	c #E5E5E5",
"u.	c #B5B5B5",
"v.	c #979797",
"w.	c #7E7E7E",
"x.	c #6D6D6D",
"y.	c #2E2E2E",
"z.	c #7C7C7C",
"A.	c #3E3E3E",
"B.	c #303030",
"C.	c #282828",
"D.	c #111111",
"E.	c #151515",
"F.	c #393939",
"G.	c #8C8C8C",
"H.	c #9F9F9F",
"I.	c #4E4E4E",
"J.	c #717171",
"K.	c #A2A2A2",
"L.	c #ACACAC",
"M.	c #B8B8B8",
"N.	c #F2F2F2",
"O.	c #5E5E5E",
"P.	c #D3D3D3",
"Q.	c #A9A9A9",
"R.	c #838383",
"S.	c #7A7A7A",
"T.	c #757575",
"U.	c #646464",
"V.	c #5C5C5C",
"W.	c #F6F6F6",
"X.	c #808080",
"Y.	c #272727",
"Z.	c #242424",
"`.	c #8A8A8A",
" +	c #1A1A1A",
".+	c #3D3D3D",
"++	c #252525",
"@+	c #1B1B1B",
"#+	c #101010",
"$+	c #6E6E6E",
"%+	c #060606",
"&+	c #6A6A6A",
"*+	c #090909",
"=+	c #868686",
"-+	c #888888",
";+	c #929292",
">+	c #B3B3B3",
",+	c #C0C0C0",
"'+	c #B1B1B1",
")+	c #363636",
"!+	c #2D2D2D",
"~+	c #353535",
"{+	c #2A2A2A",
"]+	c #8F8F8F",
"^+	c #AFAFAF",
"/+	c #F3F3F3",
"(+	c #B4B4B4",
"_+	c #E0E0E0",
":+	c #424242",
"<+	c #3C3C3C",
"[+	c #2C2C2C",
"}+	c #C8C8C8",
"|+	c #FAFAFA",
"                                        . + + .                                             @ # # @                             ",
"                                        + $ $ +                                             % # & * =                           ",
"                                        @ # # @                                             + $ - ; $                           ",
"                                        > & & >                                               @ , , '                           ",
"                                        ) , , )                                               @ ! , ' ~                         ",
"                                        ) , , )                                               + { ] ^ /                         ",
"                                        ) , , )                                                 / ( ] { ~                       ",
"                                        ) , , )                                                 ~ { ] ( /                       ",
"                                        ) , , )                                                   _ : ] _                       ",
"                                        ) , , )                                                   < , , [                       ",
"                                        ) , , )                                                   ) , , )                       ",
"                                        ) , , )                                                   ) , , )                   } | ",
"1 2 3 - 4 : & 5 6 7 , 8 9 0 a b c d e ^ 9 f g h ' i j k l m n o + p q r                           ) , , _ s t u v w < = = x y z ",
"; ; ; ; ; ; ; ; ; ; ; ; ; ; ; ; ; ; ; ; ; ; ; ; ; ; ; ; ; ; ; ; A B C D E F ] G H I 8 J K L # M N ( O P ^ { Q R G S T U V W A ; ",
"; ; ; ; ; ; ; ; ; ; ; ; ; ; ; ; ; ; ; ; ; ; ; ; ; ; ; ; ; ; ; ; ; ; ; ; ; ; ; ; ; ; ; ; ; ; ; ; ; ; ; ; ; ; A A A A A A A A ; ; ",
"X Y J 8 Z `  .P ..E D +.B A ; ; ; ; ; ; ; ; ; ; ; ; ; ; ; ; ; ; ; ; ; ; ; ; ; ; ; ; ; ; ; ; ; ; ; ; ; ; ; ; ; ; ; ; ; ; ; ; ; ; ",
"                    } | @.#.$.@ x ) z %.( S &.! 4 *.P =.-.B A ; ; ; ; ; ; ; ; ; ; ; ; ; ; ; ; ; ; ; ; ; ; ; ; ; ; ; ; ; ; ; ; ; ",
"                                        ) , , )         } q ;.>.,.) '.1 h ).!.g ~.V W A ; ; ; ; ; ; ; ; ; ; ; ; ; ; ; ; ; ; ; ; ",
"                                        ) , , )                             r {.].;.^./.w (.$ * _.5 :.<.*.^ e d : [.}.6 7 ).Z Z ",
"                                        ) , , )                                                   N S S |.                      ",
"                                        ) , , )                                                 ~ 1.2.3.<                       ",
"                                        ) , , )                                                 4.( ] 5.~                       ",
"                                        ) , , )                                                 < , , [                         ",
"                                        ) , , )                                                 ) , , )                         ",
"                                        ) , , )                                                 ) , , )                         ",
"                                        ) , , )                                                 %.6.6.%.                        ",
"                                        ) , , )                                                 M S S )                         ",
"                                        ) , , )                                               + 7.; & @                         ",
"                                        ) , , )                                               @ , , '                           ",
"                                        %.6.6.%.                                              ) , , )                           ",
"                                        M S S )                                               ) , , )                           ",
"                                      + 7.; & @                                               ) 8.3.z 9.o n w (.|.0.a.b.c.N d.e.",
"                                      @ , , '                               f.g.h.i.j.k.l.m.n.9 o.p.E =.p.q.W A ; ; ; ; ; ; ; ; ",
"                                    r _ ).r.z s.t.^.$.@ w u._ j v.' N w.x.5 y.o.q.A ; ; ; ; ; ; ; ; ; ; ; ; ; ; ; ; ; ; ; ; ; ; ",
"z.1 2 3 - 4 : & 0 R 8.).).*.A.H G B.C.D.A A B V B A A ; ; ; ; ; ; ; ; ; ; ; ; ; ; ; ; ; ; ; ; ; ; ; ; ; ; ; ; ; ; ; ; ; ; ; ; ; ",
"; ; ; ; ; ; ; ; ; ; ; ; ; ; ; ; ; ; ; ; ; ; ; ; ; ; ; ; ; ; ; ; ; ; ; ; ; ; ; ; ; ; ; ; ; ; ; ; ; ; ; ; ; ; ; ; ; ; ; ; ; ; ; A ",
"; ; ; ; ; ; ; ; ; ; ; ; ; ; ; ; ; ; ; ; ; ; ; ; ; ; ; ; ; ; ; ; ; ; ; ; ; ; ; A A W V p.:.2.E B q.E.G F.I 7 J K 2 1 z.n.G.'.H.|.",
"z.1 2 3 - 4 : & }.I.9 9 9 R 9 9 R 9 7 y.U U y.R I.a b c d e ^ J.# M N ' i K.L.M.v u 4.t.N.f.' , , @                             ",
"                                      ) , , )                                             + # ; # +                             ",
"                                      ) , , )                                             @ , , '                               ",
"                                      N 6.6.|.                                            ) , , )                               ",
"                                    ~ 1.<.B.<                                             ) , , )                               ",
"                            . + + . 4.b 2.O.4.                                            ) , , )                               ",
"                            + $ $ + < , , [                                               N 6.6.[ t.P./ y Q.j '.c.R.S.T.x.U.V.b ",
"                            + $ # $ M , , )                               W.9.n (.H.a.{ X.6.B C Y.Z.<.+.W A ; ; ; ; ; ; ; ; ; ; ",
"                            . + $ ; *.F 6.)                         {.@.v `.&  . +U q.A ; ; ; ; ; ; ; ; ; ; ; ; ; ; ; ; ; ; ; ; ",
"                                $ & ; ; .+@                   {.@.@ ' V.H ++@+E.#+-.V W A ; ; ; ; ; ; ; ; ; ; ; ; ; ; ; ; ; ; ; ",
"                                + 9 -.D.9 +           {.@.u H.$+r.O =.D -.%+B A A ; ; ; ; ; ; ; ; ; ; ; ; ; ; ; ; ; ; ; ; ; ; ; ",
"                                + & U ; &+      {.;.x 5.9 O o.*+V B W A A ; ; ; ; ; ; ; ; ; ; ; ; ; ; ; ; ; ; ; ; ; ; ; ; ; ; ; ",
"e.n.e.e.=+-+`.{ ;+i j _ >+> ,+,+'+)+; A ] 7.O.R !+<.q.A ; ; ; ; ; ; ; ; ; ; ; ; ; ; ; ; ; ; ; ; ; ; ; ; ; ; ; ; ; ; ; ; ; ; A B ",
"; ; ; ; ; ; ; ; ; ; ; ; ; ; ; ; ; ; ; ; ; ; ; ; ; ; ; ; ; ; ; ; ; ; ; ; ; ; ; ; ; ; ; ; ; ; ; ; ; ; ; ; ; ; ; ; ; ; A B o.~+O.M ",
"; ; ; ; ; ; ; ; ; ; ; ; ; ; ; ; ; ; ; ; ; ; ; ; ; ; ; ; ; ; ; ; ; ; ; ; ; ; ; ; ; ; ; ; ; ; ; A B ~.f {+F., b U.$+S.]+^+o /+r   ",
"; ; ; ; ; ; ; ; ; ; ; ; ; ; ; ; ; ; ; ; ; ; ; ; ; ; ; ; ; ; ; A A B %+~. +++6..+7 }.h ! f S : (+n _+. f.                        ",
"d & ! 8 :+<+H ~+ .y.[+{+Y.P P ++~.; B *+o.3.J.# M N ' i j k l ,+}+P.#.@.].|+r         ) , , )                                   ",
"                              @ .+6.3..+, )                                           ) , , )                                   ",
"                              @ - - =+, , )                                           ) , , )                                   ",
"                              + = = %., , )                                           ) , , )                                   ",
"                                    ) , , )                                           ) , , )                                   ",
"                                    ) , , )                                           %.6.6.%.                                  ",
"                                    ) , , )                                           M S S )                                   ",
"                                    ) , , )                                         + 7.; & @                                   ",
"                                    ) , , )                                         @ , , '                                     ",
"                                    ) , , )                                         ) , , )                                     ",
"                                    ) , , )                                         ) , , )                                     "};
