/* XPM */
static char * coin_idle_xpm[] = {
"64 64 101 2",
"  	c #FFFFFF",
". 	c #FBFBFB",
"+ 	c #C7C7C7",
"@ 	c #878787",
"# 	c #4B4B4B",
"$ 	c #2A2A2A",
"% 	c #626262",
"& 	c #898989",
"* 	c #C8C8C8",
"= 	c #F7F7F7",
"- 	c #F9F9F9",
"; 	c #BEBEBE",
"> 	c #7A7A7A",
", 	c #404040",
"' 	c #353535",
") 	c #6E6E6E",
"! 	c #B2B2B2",
"~ 	c #F4F4F4",
"{ 	c #E3E3E3",
"] 	c #000000",
"^ 	c #B3B3B3",
"/ 	c #949494",
"( 	c #F0F0F0",
"_ 	c #717171",
": 	c #AAAAAA",
"< 	c #EEEEEE",
"[ 	c #666666",
"} 	c #474747",
"| 	c #E2E2E2",
"1 	c #555555",
"2 	c #FAFAFA",
"3 	c #FCFCFC",
"4 	c #737373",
"5 	c #777777",
"6 	c #D5D5D5",
"7 	c #F5F5F5",
"8 	c #FDFDFD",
"9 	c #F2F2F2",
"0 	c #AFAFAF",
"a 	c #B7B7B7",
"b 	c #707070",
"c 	c #7D7D7D",
"d 	c #DCDCDC",
"e 	c #E5E5E5",
"f 	c #959595",
"g 	c #494949",
"h 	c #BDBDBD",
"i 	c #CACACA",
"j 	c #808080",
"k 	c #7F7F7F",
"l 	c #A1A1A1",
"m 	c #ADADAD",
"n 	c #818181",
"o 	c #424242",
"p 	c #F6F6F6",
"q 	c #8C8C8C",
"r 	c #8B8B8B",
"s 	c #E1E1E1",
"t 	c #1C1C1C",
"u 	c #565656",
"v 	c #B1B1B1",
"w 	c #535353",
"x 	c #323232",
"y 	c #FEFEFE",
"z 	c #2E2E2E",
"A 	c #939393",
"B 	c #F1F1F1",
"C 	c #EFEFEF",
"D 	c #EAEAEA",
"E 	c #161616",
"F 	c #A4A4A4",
"G 	c #A2A2A2",
"H 	c #EBEBEB",
"I 	c #C9C9C9",
"J 	c #A3A3A3",
"K 	c #B0B0B0",
"L 	c #DFDFDF",
"M 	c #D6D6D6",
"N 	c #DDDDDD",
"O 	c #E6E6E6",
"P 	c #989898",
"Q 	c #C6C6C6",
"R 	c #858585",
"S 	c #606060",
"T 	c #8A8A8A",
"U 	c #797979",
"V 	c #3B3B3B",
"W 	c #6C6C6C",
"X 	c #F3F3F3",
"Y 	c #DADADA",
"Z 	c #F8F8F8",
"` 	c #868686",
" .	c #C5C5C5",
"..	c #5D5D5D",
"+.	c #AEAEAE",
"@.	c #ECECEC",
"#.	c #8F8F8F",
"$.	c #7C7C7C",
"%.	c #5C5C5C",
"&.	c #888888",
"*.	c #454545",
"                                                                                                                                ",
"                                                                                                                                ",
"                                                                                                                                ",
"                                                                                                                                ",
"                                                                                                                                ",
"                                                                                                                                ",
"                                                                                                                                ",
"                                                                                                                                ",
"                          . + @ # $ % & * =         - ; > , ' ) ! ~         { ] ^     { ] ] *         . ] /                     ",
"                        ( _ ] ] ] ] ] ] ] :       < [ ] ] ] ] ] ] } |       { ] ^     { ] ] 1 2       . ] /                     ",
"                      3 4 ] 5 6 7 8 9 | 0 a     . b ] c d - . e f ] g 9     { ] ^     { ] c ] h       . ] /                     ",
"                      i ] j .                   i ] k .           l ] m     { ] ^     { ] ; n o p     . ] /                     ",
"                      q ] |                     r ] s             ~ t u     { ] ^     { ] ; | ] v     . ] /                     ",
"                      w x y                     w z y               5 ] p   { ] ^     { ] ;   A z B   . ] /                     ",
"                      x 1                       x 1                 r ] C   { ] ^     { ] ;   D E F   . ] /                     ",
"                      w x y                     w z y               5 ] p   { ] ^     { ] ;     G E H . ] /                     ",
"                      q ] |                     r ] s             7 t u     { ] ^     { ] ;     ( $ f . ] /                     ",
"                      i ] n .                   I ] n 3           J ] m     { ] ^     { ] ;       K ] L ] /                     ",
"                      . _ ] 5 M p 8 9 | 0 a     . ) ] j N 2 . O P ] g 9     { ] ^     { ] ;       p , c ] /                     ",
"                        C ) ] ] ] ] ] ] ] :       < [ ] ] ] ] ] ] } s       { ] ^     { ] ;         h ] ] /                     ",
"                          . Q R g $ S T I =         - ; U V x W v X         { ] ^     { ] ;         2 1 ] /                     ",
"                                                                                                                                ",
"                                                                                                                                ",
"                                                                                                                                ",
"                                                                                                                                ",
"                                                                                                                                ",
"                            { ] ^     { ] ] ] E } b G Y y         { ] ^               { ] ] ] ] ] ] ] ] Z                       ",
"                            { ] ^     { ] ] ] ] ] ] ] ] ` p       { ] ^               { ] ] ] ] ] ] ] ] Z                       ",
"                            { ] ^     { ] ^     2 H  .1 ] `       { ] ^               { ] ^                                     ",
"                            { ] ^     { ] ^           ~ ..] d     { ] ^               { ] ^                                     ",
"                            { ] ^     { ] ^             I ] +.    { ] ^               { ] ^                                     ",
"                            { ] ^     { ] ^             @.] #.    { ] ^               { ] ] ] ] ] ] ] $.                        ",
"                            { ] ^     { ] ^             ~ ] n     { ] ^               { ] ] ] ] ] ] ] $.                        ",
"                            { ] ^     { ] ^             H ] #.    { ] ^               { ] ^                                     ",
"                            { ] ^     { ] ^             * ] 0     { ] ^               { ] ^                                     ",
"                            { ] ^     { ] ^           ~ %.] N     { ] ^               { ] ^                                     ",
"                            { ] ^     { ] ^     . H  .u ] &.      { ] ^               { ] ^                                     ",
"                            { ] ^     { ] ] ] ] ] ] ] ] @ p       { ] ] ] ] ] ] ] *.  { ] ] ] ] ] ] ] ] e                       ",
"                            { ] ^     { ] ] ] E o ) G Y           { ] ] ] ] ] ] ] *.  { ] ] ] ] ] ] ] ] e                       ",
"                                                                                                                                ",
"                                                                                                                                ",
"                                                                                                                                ",
"                                                                                                                                ",
"                                                                                                                                ",
"                                                                                                                                ",
"                                                                                                                                ",
"                                                                                                                                ",
"                                                                                                                                ",
"                                                                                                                                ",
"                                                                                                                                ",
"                                                                                                                                ",
"                                                                                                                                ",
"                                                                                                                                ",
"                                                                                                                                ",
"                                                                                                                                ",
"                                                                                                                                ",
"                                                                                                                                ",
"                                                                                                                                ",
"                                                                                                                                ",
"                                                                                                                                ",
"                                                                                                                                ",
"                                                                                                                                ",
"                                                                                                                                ",
"                                                                                                                                "};
