/* XPM */
static char * enemy_afk_xpm[] = {
"64 64 104 2",
"  	c #FFFFFF",
". 	c #B6B6B6",
"+ 	c #000000",
"@ 	c #CECECE",
"# 	c #FEFEFE",
"$ 	c #868686",
"% 	c #323232",
"& 	c #EBEBEB",
"* 	c #F7F7F7",
"= 	c #2E2E2E",
"- 	c #D4D4D4",
"; 	c #E3E3E3",
"> 	c #D8D8D8",
", 	c #B3B3B3",
"' 	c #E9E9E9",
") 	c #535353",
"! 	c #454545",
"~ 	c #E2E2E2",
"{ 	c #FCFCFC",
"] 	c #737373",
"^ 	c #F2F2F2",
"/ 	c #C0C0C0",
"( 	c #C5C5C5",
"_ 	c #C8C8C8",
": 	c #353535",
"< 	c #8D8D8D",
"[ 	c #E8E8E8",
"} 	c #E7E7E7",
"| 	c #222222",
"1 	c #919191",
"2 	c #2A2A2A",
"3 	c #8C8C8C",
"4 	c #787878",
"5 	c #6E6E6E",
"6 	c #B5B5B5",
"7 	c #0D0D0D",
"8 	c #F0F0F0",
"9 	c #DDDDDD",
"0 	c #383838",
"a 	c #606060",
"b 	c #EEEEEE",
"c 	c #B9B9B9",
"d 	c #CDCDCD",
"e 	c #474747",
"f 	c #C2C2C2",
"g 	c #EDEDED",
"h 	c #BBBBBB",
"i 	c #D5D5D5",
"j 	c #767676",
"k 	c #424242",
"l 	c #A2A2A2",
"m 	c #D3D3D3",
"n 	c #ADADAD",
"o 	c #1C1C1C",
"p 	c #F4F4F4",
"q 	c #828282",
"r 	c #161616",
"s 	c #7C7C7C",
"t 	c #F6F6F6",
"u 	c #262626",
"v 	c #9F9F9F",
"w 	c #FBFBFB",
"x 	c #494949",
"y 	c #949494",
"z 	c #888888",
"A 	c #656565",
"B 	c #F9F9F9",
"C 	c #F8F8F8",
"D 	c #565656",
"E 	c #C7C7C7",
"F 	c #D2D2D2",
"G 	c #D7D7D7",
"H 	c #9D9D9D",
"I 	c #A3A3A3",
"J 	c #A0A0A0",
"K 	c #5F5F5F",
"L 	c #3D3D3D",
"M 	c #8B8B8B",
"N 	c #4F4F4F",
"O 	c #FDFDFD",
"P 	c #B0B0B0",
"Q 	c #9B9B9B",
"R 	c #AEAEAE",
"S 	c #C6C6C6",
"T 	c #9C9C9C",
"U 	c #A1A1A1",
"V 	c #F3F3F3",
"W 	c #4B4B4B",
"X 	c #6D6D6D",
"Y 	c #BDBDBD",
"Z 	c #BABABA",
"` 	c #9E9E9E",
" .	c #8F8F8F",
"..	c #7A7A7A",
"+.	c #3B3B3B",
"@.	c #EFEFEF",
"#.	c #999999",
"$.	c #DCDCDC",
"%.	c #A8A8A8",
"&.	c #ABABAB",
"*.	c #7F7F7F",
"=.	c #BFBFBF",
"-.	c #E6E6E6",
";.	c #626262",
"                                                                                                                                ",
"                                                                                                                                ",
"                                                                                                                                ",
"                                                                                                                                ",
"                                                                                                                                ",
"                                                                                                                                ",
"                                                                                                                                ",
"                                                                                                                                ",
"                                                                                                                                ",
"                                                                                                                                ",
"                                                                                                                                ",
"                                                                                                                                ",
"                                                                                                                                ",
"                                                                                                                                ",
"                                                                                                                                ",
"                                                                                                                                ",
"                . + @         # $ % &                     * = + -           ; + + + + + + + >   ; + ,         ' ) ! ~           ",
"                { ] ! ^       / + (                       _ + : <           ; + + + + + + + >   ; + ,       ; ! ) [             ",
"                  } | 1     ' 2 3                         4 5 6 7 8         ; + ,               ; + ,     9 0 a b               ",
"                    c + d { ] e ^                       [ + f g + h         ; + ,               ; + ,   i 2 5 ^                 ",
"                    { j k l + m                         n o p   q a #       ; + ,               ; + , d r s t                   ",
"                      [ u + v                         w x y     d + 9       ; + + + + + + z     ; + A + z B                     ",
"                      C D + E                         F + G     B 0 H       ; + + + + + + z     ; + : + I #                     ",
"                      J 7 K L 8                       M N O       I 2 t     ; + ,               ; + P Q + l #                   ",
"                    i + R ' u M                     8 7 + + + + + + + S     ; + ,               ; + , O T + U #                 ",
"                  V W X w   Y + _                   Z + + + + + + + + j     ; + ,               ; + ,   O ` + v #               ",
"                   .| }     O ..+.@.              # K L B           #.+ }   ; + ,               ; + ,     # v + v #             ",
"                E + Y         & 2 z               $.+ %.            $.+ &.  ; + ,               ; + ,       # v + ` O           ",
"              g : *.#           =.+ E             Q + -.            # ;.! w ; + ,               ; + ,         # J + T O         ",
"                                                                                                                                ",
"                                                                                                                                ",
"                                                                                                                                ",
"                                                                                                                                ",
"                                                                                                                                ",
"                                                                                                                                ",
"                                                                                                                                ",
"                                                                                                                                ",
"                                                                                                                                ",
"                                                                                                                                ",
"                                                                                                                                ",
"                                                                                                                                ",
"                                                                                                                                ",
"                                                                                                                                ",
"                                                                                                                                ",
"                                                                                                                                ",
"                                                                                                                                ",
"                                                                                                                                ",
"                                                                                                                                ",
"                                                                                                                                ",
"                                                                                                                                ",
"                                                                                                                                ",
"                                                                                                                                ",
"                                                                                                                                ",
"                                                                                                                                ",
"                                                                                                                                ",
"                                                                                                                                ",
"                                                                                                                                ",
"                                                                                                                                ",
"                                                                                                                                ",
"                                                                                                                                ",
"                                                                                                                                ",
"                                                                                                                                ",
"                                                                                                                                ",
"                                                                                                                                "};
