/* XPM */
static char * player_up_exit_xpm[] = {
"64 64 9 1",
" 	c #FFFFFF",
".	c #F9F9F9",
"+	c #E7E7E7",
"@	c #000000",
"#	c #E1E1E1",
"$	c #C6C6C6",
"%	c #F4F4F4",
"&	c #CBCBCB",
"*	c #BCBCBC",
"                                                                ",
"                                                                ",
"     ..                                                         ",
"     ++                                                         ",
"     @#                                                         ",
"     @#                                                         ",
"     @#                           @@@@@@@                       ",
"     @$             @             @     @@                      ",
"     @#             @             @      @                      ",
"     @              @             @       @                     ",
"     @%             @             @       @                     ",
"     @              @             @       @                     ",
"    @@              @             @       @                     ",
"    @&              @             @       @                     ",
"    @&              @             @       @                     ",
"    @#              @             @      @                      ",
"    @#              @             @@@@ @@@                      ",
"    #@              @             @  @@@                        ",
"    &@              @             @                             ",
"    *@             @@             @                             ",
"   %&@             @              @                             ",
"   ##@             @              @                             ",
"   &%@             @              @                             ",
"   &%@             @             @@                             ",
"   * @             @             @@                             ",
"  %& @             @             @@                             ",
"  %& @             @             @@                             ",
"   * @             @             @@                             ",
"   * @@            @             @@                             ",
"   *  @            @             @                              ",
"   *  @@           @             @                              ",
"   *   @          @@             @                              ",
"  %&   @@         @              @                              ",
"  %&    @@@     @@@              @                              ",
"   &%     @@@@@@@                @                              ",
"   &%       @@                   @                              ",
"   ##                            @                              ",
"                                                                ",
"                                                                ",
"                                                                ",
"                                                                ",
"                                                                ",
"                                                                ",
"                                                                ",
"                                                                ",
"                                          @@                    ",
"                                                                ",
"             @              @@@@@@       @                      ",
"             @            @@             @@                     ",
"            @             @        @    @ @                     ",
"   @@@@@@@  @             @        @    @ @   @@@@@@@           ",
"          @@@@@@@          @        @  @  @       @             ",
"            @    @@@@@ @@@@@@@      @  @  @       @             ",
"            @          @@   @       @  @  @       @             ",
"            @            @@@         @@   @       @             ",
"            @              @@@       @    @       @             ",
"            @                        @@   @       @             ",
"            @                     @ @ @   @       @             ",
"            @                      @@  @  @       @             ",
"            @                             @        @            ",
"            @                                      @            ",
"                                                   @            ",
"                                                   @            ",
"                                                    @           "};
