/* XPM */
static char * player_down_xpm[] = {
"64 64 2 1",
" 	c #FFFFFF",
".	c #000000",
"                                                                ",
"                                                                ",
"                                            .                   ",
"                                            .                   ",
"                                           .              .     ",
"                                           .              .     ",
"     .                                     .              .     ",
"     ...             ....                  .              .     ",
"      . .          ...  .     .       .   .         ..   .      ",
"      .  .        .     .     .       .   .         . .  .      ",
"      .  ..      .      .      .     . .  .         .  . .      ",
"      .   .     .       .      .    .  .  .        .   . .      ",
"      .   .     .       .      .    .  . .         .    ..      ",
"      .   .    .        .      .   .   . .        .     ..      ",
"      .   .    .        .      .  .    . .        .      .      ",
"      .  ..    .        .      . .     . .        .      .      ",
"      .  .    .        ..       ..      .        .       .      ",
"      .  .    .        .        ..      .        .       .      ",
"      .  .    .       .         .       .       .               ",
"      ...     ....  ..                          .               ",
"      ..          ...                                           ",
"                                                                ",
"                                                                ",
"                                                                ",
"                                                                ",
"                                                                ",
"                                                                ",
"                                                                ",
"                                                                ",
"                                                                ",
"                                                                ",
"                                                                ",
"                                                                ",
"                                                                ",
"                                                                ",
"                                                                ",
"                                                                ",
"                                                                ",
"                                                                ",
"                                                                ",
"                                                                ",
"                                                                ",
"                                                                ",
"                                                                ",
"                                                                ",
"                                                                ",
"                                                                ",
"                                                                ",
"                                                                ",
"                                                                ",
"                                                                ",
"                                                                ",
"                                                                ",
"                                                                ",
"                                                                ",
"                                                                ",
"                                                                ",
"                                                                ",
"                                                                ",
"                                                                ",
"                                                                ",
"                                                                ",
"                                                                ",
"                                                                "};
