/* XPM */
static char * player_left_exit_xpm[] = {
"64 64 2 1",
" 	c #FFFFFF",
".	c #000000",
"                                                                ",
"       .                                                        ",
"       ..                                                       ",
"        .                                                       ",
"       ..            .......                                    ",
"       ..            .      .                                   ",
"       ..            .                 ...........              ",
"       ..            .                 . ........               ",
"       ..           ..                 .              ..........",
"       ..           .                  .            ............",
"       ..           .                  .                    .   ",
"       ..           .                  .      ...           .   ",
"       ..          ...........         ..........           .   ",
"       ..           .                  .                    .   ",
"       ..           .                  .                    .   ",
"        .           .                  .                    .   ",
"        .           .                  .                   .    ",
"       .........    .                  .                   .    ",
"                    .                  .                   .    ",
"                     .                 .                   .    ",
"                     .                 .                  ..    ",
"                     ........         ..                  ..    ",
"                                                          ..    ",
"                                    .                     .     ",
"                                    .                     .     ",
"                                    .                     .     ",
"                                   ..                     .     ",
"                                   ..                    ..     ",
"                                   ...                   .      ",
"                                   ...                          ",
"                          ........................              ",
"                                   ...                          ",
"                                   ...                          ",
"                                   ...                          ",
"                                    ..                          ",
"                                    ..                          ",
"                                     .                          ",
"                                  .  .                          ",
"                                 .                              ",
"                                 .                              ",
"                                 .                              ",
"            ..........          .                               ",
"            .              .    .      .                        ",
"            .               .   .      .    .......             ",
"           .                .  .       .           .............",
"           .                .  .       .              .         ",
"           .                . .        .              .         ",
"           .                . .        .              .         ",
"           .                 .         .              .         ",
"           .                ..         .               .        ",
"           .                ..         .               .        ",
"           ............    . .         .               .        ",
"           ..              .  .        .               .        ",
"           .              .   .        .               .        ",
"           .              .   .        .               .        ",
"           .              .   .        .               .        ",
"           .             .    .        .               .        ",
"           .            .     .        .               .        ",
"           .            .              .               .        ",
"           ...........  .              .               .        ",
"                     ..               ..               .        ",
"                                      .                 .       ",
"                                                        .       ",
"                                                        .       "};
