/* XPM */
static char * player_afk2_xpm[] = {
"64 64 108 2",
"  	c #FFFFFF",
". 	c #E3E3E3",
"+ 	c #000000",
"@ 	c #3D3D3D",
"# 	c #808080",
"$ 	c #CFCFCF",
"% 	c #F7F7F7",
"& 	c #2E2E2E",
"* 	c #D4D4D4",
"= 	c #D8D8D8",
"- 	c #B3B3B3",
"; 	c #E9E9E9",
"> 	c #535353",
", 	c #454545",
"' 	c #E2E2E2",
") 	c #BCBCBC",
"! 	c #C8C8C8",
"~ 	c #353535",
"{ 	c #8D8D8D",
"] 	c #E8E8E8",
"^ 	c #F5F5F5",
"/ 	c #C0C0C0",
"( 	c #FBFBFB",
"_ 	c #787878",
": 	c #6E6E6E",
"< 	c #B5B5B5",
"[ 	c #0D0D0D",
"} 	c #F0F0F0",
"| 	c #DDDDDD",
"1 	c #383838",
"2 	c #606060",
"3 	c #EEEEEE",
"4 	c #8C8C8C",
"5 	c #C2C2C2",
"6 	c #EDEDED",
"7 	c #BBBBBB",
"8 	c #D5D5D5",
"9 	c #2A2A2A",
"0 	c #F2F2F2",
"a 	c #ADADAD",
"b 	c #1C1C1C",
"c 	c #F4F4F4",
"d 	c #828282",
"e 	c #FEFEFE",
"f 	c #CDCDCD",
"g 	c #161616",
"h 	c #7C7C7C",
"i 	c #F6F6F6",
"j 	c #494949",
"k 	c #949494",
"l 	c #888888",
"m 	c #656565",
"n 	c #F9F9F9",
"o 	c #D2D2D2",
"p 	c #D7D7D7",
"q 	c #9D9D9D",
"r 	c #A3A3A3",
"s 	c #3B3B3B",
"t 	c #CECECE",
"u 	c #8B8B8B",
"v 	c #4F4F4F",
"w 	c #FDFDFD",
"x 	c #B0B0B0",
"y 	c #9B9B9B",
"z 	c #A2A2A2",
"A 	c #C6C6C6",
"B 	c #9C9C9C",
"C 	c #A1A1A1",
"D 	c #BABABA",
"E 	c #767676",
"F 	c #9E9E9E",
"G 	c #9F9F9F",
"H 	c #5F5F5F",
"I 	c #999999",
"J 	c #E7E7E7",
"K 	c #DCDCDC",
"L 	c #A8A8A8",
"M 	c #ABABAB",
"N 	c #E6E6E6",
"O 	c #626262",
"P 	c #A0A0A0",
"Q 	c #F8F8F8",
"R 	c #CACACA",
"S 	c #8A8A8A",
"T 	c #555555",
"U 	c #404040",
"V 	c #BFBFBF",
"W 	c #FAFAFA",
"X 	c #AAAAAA",
"Y 	c #737373",
"Z 	c #B6B6B6",
"` 	c #ACACAC",
" .	c #E0E0E0",
"..	c #DADADA",
"+.	c #5A5A5A",
"@.	c #C9C9C9",
"#.	c #DBDBDB",
"$.	c #858585",
"%.	c #666666",
"&.	c #969696",
"*.	c #4D4D4D",
"=.	c #565656",
"-.	c #EBEBEB",
";.	c #EFEFEF",
">.	c #696969",
",.	c #515151",
"'.	c #F1F1F1",
").	c #979797",
"                                                                                                                                ",
"                                                                                                                                ",
"                                                                                                                                ",
"                                                                                                                                ",
"                                                                                                                                ",
"                                                                                                                                ",
"                                                                                                                                ",
"                                                                                                                                ",
"                                                                                                                                ",
"                                                                                                                                ",
"                                                                                                                                ",
"                                                                                                                                ",
"                                                                                                                                ",
"                                                                                                                                ",
"                                                                                                                                ",
"                                                                                                                                ",
"                . + + + + @ # $                         % & + *           . + + + + + + + =   . + -         ; > , '             ",
"                . + + + + + + + )                       ! + ~ {           . + + + + + + + =   . + -       . , > ]               ",
"                . + -     ^ / + ~ (                     _ : < [ }         . + -               . + -     | 1 2 3                 ",
"                . + -         4 + ]                   ] + 5 6 + 7         . + -               . + -   8 9 : 0                   ",
"                . + -         4 + ]                   a b c   d 2 e       . + -               . + - f g h i                     ",
"                . + -     ^ 5 [ ~ (                 ( j k     f + |       . + + + + + + l     . + m + l n                       ",
"                . + + + + + + + )                   o + p     n 1 q       . + + + + + + l     . + ~ + r e                       ",
"                . + + + + s # t                     u v w       r 9 i     . + -               . + x y + z e                     ",
"                . + -                             } [ + + + + + + + A     . + -               . + - w B + C e                   ",
"                . + -                             D + + + + + + + + E     . + -               . + -   w F + G e                 ",
"                . + -                           e H @ n           I + J   . + -               . + -     e G + G e               ",
"                . + -                           K + L             K + M   . + -               . + -       e G + F w             ",
"                . + -                           y + N             e O , ( . + -               . + -         e P + B w           ",
"                                                                                                                                ",
"                                                                                                                                ",
"                                                                                                                                ",
"                                                                                                                                ",
"                                                                                                                                ",
"                                                                                                                                ",
"                                                                                                                                ",
"                                                                                                                                ",
"                                                                                                                                ",
"                                                                                                                                ",
"                                                                                                                                ",
"                                                          Q R S T U E V W                                                       ",
"                                                          X + + + + + + Y W                                                     ",
"                                                          Z `  .c n ..+.+ @.                                                    ",
"                                                                      * + -                                                     ",
"                                                                      #.+ f                                                     ",
"                                                                    e $.%.(                                                     ",
"                                                                  e C , ;                                                       ",
"                                                                ( &.*.J                                                         ",
"                                                              i # =.-.                                                          ",
"                                                            ;.>.H 3                                                             ",
"                                                          N ,.>.'.                                                              ",
"                                                          ).+ + + + + + + F                                                     ",
"                                                          ).+ + + + + + + F                                                     ",
"                                                                                                                                ",
"                                                                                                                                ",
"                                                                                                                                ",
"                                                                                                                                ",
"                                                                                                                                ",
"                                                                                                                                ",
"                                                                                                                                ",
"                                                                                                                                ",
"                                                                                                                                ",
"                                                                                                                                ",
"                                                                                                                                "};
